HIERARCHY
ROOT Hips
{
 OFFSET 0.000000 0.000000 0.000000
 CHANNELS 6 Xposition Yposition Zposition Yrotation Xrotation Zrotation
 JOINT Chest
 {
  OFFSET 0.000000 9.585900 0.002600
  CHANNELS 3 Yrotation Xrotation Zrotation
  JOINT Chest2
  {
   OFFSET 0.000000 9.601200 -0.005300
   CHANNELS 3 Yrotation Xrotation Zrotation
   JOINT Chest3
   {
    OFFSET 0.000000 9.561800 0.000000
    CHANNELS 3 Yrotation Xrotation Zrotation
    JOINT Chest4
    {
     OFFSET 0.000000 9.552100 0.000000
     CHANNELS 3 Yrotation Xrotation Zrotation
     JOINT Neck
     {
      OFFSET 0.000000 14.453000 0.000000
      CHANNELS 3 Yrotation Xrotation Zrotation
      JOINT Head
      {
       OFFSET 0.000000 8.936500 -0.011300
       CHANNELS 3 Yrotation Xrotation Zrotation
       End Site
       {
        OFFSET 0.000000 17.073600 -0.006000
       }
      }
     }
     JOINT RightCollar
     {
      OFFSET -2.921100 9.558500 0.000000
      CHANNELS 3 Yrotation Xrotation Zrotation
      JOINT RightShoulder
      {
       OFFSET -13.519700 0.000000 0.000000
       CHANNELS 3 Yrotation Xrotation Zrotation
       JOINT RightElbow
       {
        OFFSET 0.000000 -29.696600 0.000000
        CHANNELS 3 Yrotation Xrotation Zrotation
        JOINT RightWrist
        {
         OFFSET 0.000000 -24.004700 0.000000
         CHANNELS 3 Yrotation Xrotation Zrotation
         End Site
         {
          OFFSET 0.000000 -17.728500 0.000000
         }
        }
       }
      }
     }
     JOINT LeftCollar
     {
      OFFSET 2.921100 9.558500 0.000000
      CHANNELS 3 Yrotation Xrotation Zrotation
      JOINT LeftShoulder
      {
       OFFSET 13.519700 0.000000 0.000000
       CHANNELS 3 Yrotation Xrotation Zrotation
       JOINT LeftElbow
       {
        OFFSET 0.000000 -29.696600 0.000000
        CHANNELS 3 Yrotation Xrotation Zrotation
        JOINT LeftWrist
        {
         OFFSET 0.000000 -24.004700 0.000000
         CHANNELS 3 Yrotation Xrotation Zrotation
         End Site
         {
          OFFSET 0.000000 -17.728500 0.000000
         }
        }
       }
      }
     }
    }
   }
  }
 }
 JOINT RightHip
 {
  OFFSET -7.771700 -0.012900 -0.001300
  CHANNELS 3 Yrotation Xrotation Zrotation
  JOINT RightKnee
  {
   OFFSET 0.000000 -40.869800 0.001200
   CHANNELS 3 Yrotation Xrotation Zrotation
   JOINT RightAnkle
   {
    OFFSET 0.000000 -39.717900 0.002100
    CHANNELS 3 Yrotation Xrotation Zrotation
    JOINT RightToe
    {
     OFFSET 0.000000 -4.965400 11.033500
     CHANNELS 3 Yrotation Xrotation Zrotation
     End Site
     {
      OFFSET 0.000000 -1.423100 5.872300
     }
    }
   }
  }
 }
 JOINT LeftHip
 {
  OFFSET 7.771700 -0.012900 -0.001300
  CHANNELS 3 Yrotation Xrotation Zrotation
  JOINT LeftKnee
  {
   OFFSET 0.000000 -40.869800 0.001200
   CHANNELS 3 Yrotation Xrotation Zrotation
   JOINT LeftAnkle
   {
    OFFSET 0.000000 -39.717900 0.002100
    CHANNELS 3 Yrotation Xrotation Zrotation
    JOINT LeftToe
    {
     OFFSET 0.000000 -4.965400 11.033500
     CHANNELS 3 Yrotation Xrotation Zrotation
     End Site
     {
      OFFSET 0.000000 -1.423100 5.872300
     }
    }
   }
  }
 }
}
MOTION
Frames: 8
Frame Time: 0.008333
0.000000 85.388000 0.000000 0.000000 -5.767877 0.000000 0.000000 11.653817 0.000000 0.000000 -5.885947 0.000000 0.000000 -0.000000 0.000000 0.000000 -0.000000 0.000000 0.000000 12.528835 0.000000 0.000000 0.711642 0.000000 0.000000 -0.000000 0.000000 0.000000 0.000000 -90.000000 0.000000 -2.309062 0.000000 0.000000 2.309062 0.000000 0.000000 -0.000000 0.000000 0.000000 -0.000000 90.000000 0.000000 -2.309062 0.000000 0.000000 2.309062 0.000000 0.000000 8.520406 0.000000 0.000000 1.905762 0.000000 -0.000000 -4.658285 0.000000 0.000000 -0.000000 0.000000 0.000000 8.520406 0.000000 0.000000 1.905762 0.000000 -0.000000 -4.658285 0.000000 0.000000 -0.000000 0.000000
-31.724659 57.951469 87.692325 -168.171944 -33.583811 -1.636860 -8.015356 22.795954 0.386765 -1.121227 3.438925 0.064843 -1.983191 5.558842 0.108379 -6.684190 19.006539 -0.495687 2.698525 16.792426 -1.641812 5.597402 -4.515830 -3.979940 11.167494 -3.435757 -5.465601 39.866145 -45.928639 -22.349625 42.873625 -1.829769 9.936395 12.831330 10.315572 -55.678511 -12.737965 -9.714688 -3.922540 -26.014253 -49.949633 1.042073 -63.335816 12.512125 7.530191 -25.632243 4.983916 30.063053 1.766727 -35.542987 -12.081661 20.456949 80.874450 25.510495 2.247246 -10.436427 0.094767 -0.466280 0.802646 -0.199009 -16.638982 -42.706672 -12.650346 54.006446 80.430030 51.470959 -22.466467 -7.538726 0.759357 -0.415427 -1.348982 -0.258594
-31.723841 57.953634 87.693211 -168.161500 -33.585066 -1.650588 -8.109216 22.805143 0.378966 -1.123761 3.444630 0.063172 -1.992695 5.567320 0.105745 -6.673842 18.995310 -0.511576 2.655993 16.821777 -1.635778 5.664025 -4.517337 -4.044947 11.388096 -3.487960 -5.523995 40.036057 -45.831453 -22.517863 42.648467 -1.765495 9.985394 12.822304 10.321897 -55.623547 -12.721322 -9.772379 -3.926405 -26.098600 -49.918118 1.131862 -63.258082 12.537463 7.499876 -25.618639 5.002582 30.002030 1.763391 -35.537268 -12.074073 20.415994 80.870871 25.474643 2.248203 -10.427336 0.099103 -0.469256 0.809795 -0.201793 -16.660184 -42.713947 -12.632733 54.026989 80.438591 51.484070 -22.465536 -7.497889 0.766571 -0.396509 -1.338811 -0.246997
-31.724352 57.956573 87.693788 -168.161987 -33.592993 -1.651382 -8.170213 22.818956 0.368898 -1.141024 3.447821 0.063195 -2.002260 5.582360 0.105720 -6.668463 18.980187 -0.525892 2.616293 16.854124 -1.631201 5.617069 -4.444819 -4.070724 11.596807 -3.541798 -5.579205 40.169378 -45.745674 -22.649987 42.453941 -1.698013 10.031101 12.801606 10.323076 -55.594437 -12.701543 -9.827453 -3.932326 -26.175606 -49.893343 1.214584 -63.211404 12.601225 7.422935 -25.551820 4.982170 30.059131 1.768707 -35.526530 -12.072156 20.362955 80.868765 25.419381 2.256846 -10.419200 0.107943 -0.478196 0.814752 -0.205993 -16.666860 -42.716605 -12.629520 54.049945 80.446041 51.496032 -22.446227 -7.446915 0.781045 -0.388474 -1.337719 -0.243318
-31.723999 57.960012 87.693907 -168.173424 -33.605899 -1.652243 -8.212984 22.838476 0.369562 -1.200560 3.467484 0.073105 -1.967592 5.583290 0.093606 -6.799408 19.018597 -0.517320 2.683432 16.833462 -1.700007 5.593282 -4.418499 -4.103324 11.920744 -3.641679 -5.707977 40.233197 -45.671907 -22.722247 42.336515 -1.604873 10.103291 12.751096 10.298986 -55.615761 -12.527685 -9.935280 -4.001275 -26.209262 -49.882473 1.251828 -63.192253 12.627976 7.382431 -25.517336 4.980829 30.071752 1.779103 -35.511975 -12.064387 20.294007 80.864047 25.353412 2.262920 -10.399053 0.113809 -0.480810 0.805231 -0.209467 -16.670384 -42.718727 -12.621742 54.100016 80.455247 51.536186 -22.425557 -7.367631 0.795568 -0.390081 -1.363831 -0.242775
-31.723901 57.963754 87.693842 -168.184634 -33.623217 -1.652612 -8.251345 22.862193 0.371672 -1.223047 3.479723 0.077708 -1.966140 5.593189 0.088609 -6.857564 19.042727 -0.516408 2.692491 16.824770 -1.735550 5.580720 -4.415465 -4.138755 12.161515 -3.734896 -5.800722 40.209056 -45.612863 -22.725195 42.275577 -1.522939 10.163012 12.704107 10.277191 -55.652010 -12.433003 -10.022739 -4.039963 -26.235865 -49.872851 1.284955 -63.165158 12.637625 7.358526 -25.512042 4.988479 30.003572 1.799495 -35.491957 -12.066272 20.241861 80.858203 25.312896 2.275784 -10.374338 0.117552 -0.488933 0.802279 -0.213890 -16.674155 -42.714078 -12.614108 54.123104 80.464260 51.554324 -22.431983 -7.302908 0.802944 -0.378232 -1.373912 -0.236959
-31.725401 57.967110 87.694640 -168.194989 -33.639294 -1.643904 -8.289703 22.883833 0.364134 -1.219987 3.484303 0.074109 -1.987093 5.610755 0.093117 -6.885866 19.057052 -0.519836 2.679348 16.823760 -1.754657 5.563133 -4.416887 -4.169630 12.364696 -3.820175 -5.875354 40.089324 -45.568862 -22.673788 42.288425 -1.437097 10.274779 12.645060 10.233623 -55.773314 -12.393664 -10.119083 -4.047161 -26.246302 -49.854220 1.314449 -63.118736 12.645169 7.329347 -25.512757 4.992805 29.984466 1.854985 -35.475978 -12.109172 20.231965 80.858161 25.343968 2.304656 -10.328245 0.116969 -0.509996 0.786166 -0.222122 -16.663967 -42.708794 -12.622129 54.106851 80.473628 51.537104 -22.436059 -7.247548 0.811668 -0.364849 -1.370638 -0.231340
-31.725200 57.968057 87.698775 -168.215465 -33.632188 -1.636478 -8.311668 22.885611 0.368542 -1.226752 3.493076 0.074517 -1.997608 5.623927 0.093534 -6.911884 19.071752 -0.522218 2.665411 16.820826 -1.772280 5.543585 -4.422089 -4.197501 12.529608 -3.895215 -5.943940 39.990227 -45.539633 -22.625407 42.299261 -1.386533 10.352264 12.608719 10.231997 -55.815034 -12.366147 -10.246425 -4.041790 -26.169871 -49.811348 1.277415 -63.131186 12.650079 7.278595 -25.494019 5.002963 29.986574 1.893271 -35.486076 -12.129099 20.129621 80.853719 25.267489 2.337506 -10.285489 0.117005 -0.521197 0.767855 -0.228745 -16.659229 -42.723124 -12.612889 54.046461 80.483736 51.479670 -22.429311 -7.201561 0.803982 -0.341096 -1.353560 -0.215440
